<?xml version="1.0" encoding="utf-8"?>
<!-- Generator: Adobe Illustrator 24.0.1, SVG Export Plug-In . SVG Version: 6.00 Build 0)  -->
<svg version="1.1" id="Layer_1" xmlns="http://www.w3.org/2000/svg" xmlns:xlink="http://www.w3.org/1999/xlink" x="0px" y="0px"
	 width="16px" height="16px" viewBox="0 0 16 16" enable-background="new 0 0 16 16" xml:space="preserve">
<path id="path-1_1_" fill-rule="evenodd" clip-rule="evenodd" fill="#fff" d="M8,1c3.8659163,0,7,3.1340833,7,7s-3.1340837,7-7,7
	s-7-3.1340837-7-7S4.1340833,1,8,1z M6.7977471,2.3995073L6.7162623,2.417166
	c-0.4610291,0.1055815-0.900846,0.2668047-1.3120065,0.4762251C5.591959,3.1088929,5.7640882,3.351248,5.9263611,3.6236124
	C6.5466304,4.6624937,6.8355427,5.8183327,6.1894031,6.65376c-0.2483368,0.3211207-0.5629311,0.5436749-1.07619,0.8105044
	L4.4986796,7.769917L4.2915382,7.878933c-0.0896606,0.0498328-0.1593485,0.0931911-0.213078,0.1324978L4.0227275,8.0536366
	l0.0133977,0.0284166C4.074616,8.1558743,4.1558576,8.2708616,4.2968917,8.4445915l0.5245905,0.6214342
	c0.089644,0.1105947,0.1662965,0.2122231,0.2344046,0.3126755c0.674015,0.9952507,0.5822787,2.0548439,0.0195503,2.996995
	c-0.0781322,0.1309233-0.1711836,0.2555256-0.2767167,0.3726358C5.7104254,13.3661766,6.8130555,13.727273,8,13.727273
	c3.1630087,0,5.727273-2.5642643,5.727273-5.727273c0-1.1525564-0.340476-2.2256136-0.9263315-3.1240745
	C11.723588,5.318501,10.3084087,5.7040935,9.7809038,5.7420502c-0.579668,0.0416427-0.9670725-0.204422-1.2841234-0.6919622
	L8.1381836,4.4473739L8.0466518,4.3000536c-0.0552816-0.0840282-0.1008501-0.1439991-0.229929-0.2949071L7.3724279,3.4874706
	L7.3109121,3.4111223l0,0C7.0218511,3.0465553,6.845048,2.7354352,6.7977471,2.3995073z M10.0330086,6.150785
	c1.4443235,0,2.6434259,1.0322504,2.6610975,2.3632321c0.029294,2.1503029-2.6602907,4.8170929-4.3560677,4.1249905
	c-0.8851266-0.3614683-1.020927-0.7680426-0.9490132-2.0147161l0.0122776-0.1934004l0.0176368-0.2886963
	C7.448132,9.5863209,7.439836,9.1469011,7.3760929,8.5960369C7.2189069,7.2414403,8.5360098,6.150785,10.0330086,6.150785z
	 M4.3303776,3.6015139C3.0715461,4.6557202,2.2727273,6.2345996,2.2727273,8c0,1.5180664,0.5906682,2.8982143,1.5547099,3.9231501
	c0.0634-0.0658989,0.1152167-0.1328535,0.1552145-0.1998768c0.3321176-0.5560493,0.3791838-1.0996857,0.0196204-1.6306171
	C3.9567966,10.0255842,3.9012175,9.9518957,3.832762,9.8674402L3.3520257,9.3015661
	C2.8809435,8.7364521,2.735595,8.4590969,2.735595,8c0-0.5940166,0.330301-0.913383,1.0335917-1.2857676l0.3510287-0.1770377
	C4.224925,6.4856982,4.3308697,6.4338236,4.3458123,6.426415l0.2797771-0.1446319
	c0.290823-0.158267,0.4614139-0.2829852,0.5570436-0.4066429c0.1984553-0.2565928,0.0155087-0.9884987-0.3493466-1.5995913
	C4.6743679,4.0088153,4.509953,3.788131,4.3303776,3.6015139z M10.0330086,7.4235125
	c-0.8106155,0-1.4502459,0.5296597-1.3926477,1.0260248C8.7252407,9.1830692,8.7239771,9.745636,8.671052,10.51791
	c-0.0495777,0.7234097-0.062068,0.8355141,0.0544558,0.9013081l0.0269775,0.0135956l0.0666075,0.0278807
	c0.7212095,0.2943497,2.6206636-1.5890064,2.6024017-2.9295597C11.4136133,7.9375486,10.8164883,7.4235125,10.0330086,7.4235125z
	 M8.2393017,2.530592l0.0688934,0.0897958c0.0657387,0.0829101,0.1374187,0.1676457,0.2488394,0.2955379l0.2556953,0.2954748
	c0.1297283,0.1522663,0.1909027,0.2313652,0.2610188,0.3348908L9.2041883,3.750643l0.3595524,0.6055925
	c0.0719042,0.11057,0.070653,0.1205921,0.1021891,0.118422l0.0237045-0.002058
	c0.3357124-0.0241561,1.3611021-0.2972879,2.2520447-0.6270857C10.9152651,2.8707173,9.5274467,2.2727273,8,2.2727273
	L8.0767336,2.273766C8.1025772,2.3295422,8.1553354,2.4171805,8.2393017,2.530592z"/>
</svg>
