<?xml version="1.0" encoding="utf-8"?>
<!-- Generator: Adobe Illustrator 24.0.1, SVG Export Plug-In . SVG Version: 6.00 Build 0)  -->
<svg version="1.1" id="Layer_1" xmlns="http://www.w3.org/2000/svg" x="0px" y="0px"
	 width="16px" height="16px" viewBox="0 0 16 16" enable-background="new 0 0 16 16" xml:space="preserve">
<path id="path-1_1_" fill-rule="evenodd" clip-rule="evenodd" fill="#181C56" d="M5.3000002,12
	C4.4765964,12,3.8,12.6650743,3.8,13.4986286c0,0.8335533,0.6765964,1.4986277,1.5000002,1.4986277s1.5-0.6650743,1.5-1.4986277
	C6.8000002,12.6650743,6.1234035,12,5.3000002,12z M12.3000002,12c-0.8234043,0-1.5,0.6650743-1.5,1.4986286
	c0,0.8335533,0.6765957,1.4986277,1.5,1.4986277c0.8234034,0,1.5-0.6650743,1.5-1.4986277
	C13.8000002,12.6650743,13.1234035,12,12.3000002,12z M3.4545045,1C3.7401948,1,3.9865623,1.1894903,4.064992,1.4565725
	l0.0197468,0.0917478l0.3270226,2.3434496l9.9516516,0.0007436c0.3728714,0,0.6586428,0.3165371,0.6352472,0.6761959
	l-0.0124187,0.0906549l-1.212101,5.785027c-0.0548954,0.262002-0.2663622,0.4579115-0.5241861,0.4982119l-0.0986423,0.0076437
	H4.6666055c-0.2856903,0-0.5320578-0.1894903-0.6104875-0.4565725L4.0363708,10.401927L2.8999681,2.272706H1V1H3.4545045z
	 M13.5788803,5.1644759H4.5890307l0.630899,4.5126519h7.4135122L13.5788803,5.1644759z"/>
</svg>
